<svg xmlns="http://www.w3.org/2000/svg" width="3300" height="760"><style>.node {cursor: pointer;}.node circle {fill: #fff;stroke: steelblue;stroke-width: 1.5px;}.node text {font: 10px sans-serif;}.link {fill: none;stroke: #ddd;stroke-width: 1.5px;}</style><g transform="translate(20 20)"><path class="link" d="M 250 435.6 C 375 435.6 375 435.6 500 435.6" /><path class="link" d="M 500 378 C 625 378 625 378 750 378" /><path class="link" d="M 250 378 C 375 378 375 378 500 378" /><path class="link" d="M 750 320.4 C 875 320.4 875 320.4 1000 320.4" /><path class="link" d="M 500 320.4 C 625 320.4 625 320.4 750 320.4" /><path class="link" d="M 250 320.4 C 375 320.4 375 320.4 500 320.4" /><path class="link" d="M 2500 662.4 C 2625 662.4 2625 662.4 2750 662.4" /><path class="link" d="M 2250 662.4 C 2375 662.4 2375 662.4 2500 662.4" /><path class="link" d="M 2250 604.8 C 2375 604.8 2375 604.8 2500 604.8" /><path class="link" d="M 2250 547.2 C 2375 547.2 2375 547.2 2500 547.2" /><path class="link" d="M 2000 619.2 C 2125 619.2 2125 547.2 2250 547.2" /><path class="link" d="M 2000 619.2 C 2125 619.2 2125 576 2250 576" /><path class="link" d="M 2000 619.2 C 2125 619.2 2125 604.8 2250 604.8" /><path class="link" d="M 2000 619.2 C 2125 619.2 2125 662.4 2250 662.4" /><path class="link" d="M 2000 619.2 C 2125 619.2 2125 691.2 2250 691.2" /><path class="link" d="M 2750 446.4 C 2875 446.4 2875 446.4 3000 446.4" /><path class="link" d="M 2750 388.8 C 2875 388.8 2875 388.8 3000 388.8" /><path class="link" d="M 2500 403.2 C 2625 403.2 2625 360 2750 360" /><path class="link" d="M 2500 403.2 C 2625 403.2 2625 388.8 2750 388.8" /><path class="link" d="M 2500 403.2 C 2625 403.2 2625 446.4 2750 446.4" /><path class="link" d="M 2250 432 C 2375 432 2375 374.4 2500 374.4" /><path class="link" d="M 2250 432 C 2375 432 2375 403.2 2500 403.2" /><path class="link" d="M 2250 432 C 2375 432 2375 432 2500 432" /><path class="link" d="M 2250 432 C 2375 432 2375 460.8 2500 460.8" /><path class="link" d="M 2250 432 C 2375 432 2375 489.6 2500 489.6" /><path class="link" d="M 2000 432 C 2125 432 2125 432 2250 432" /><path class="link" d="M 2250 316.8 C 2375 316.8 2375 316.8 2500 316.8" /><path class="link" d="M 2250 259.2 C 2375 259.2 2375 259.2 2500 259.2" /><path class="link" d="M 2000 259.2 C 2125 259.2 2125 201.6 2250 201.6" /><path class="link" d="M 2000 259.2 C 2125 259.2 2125 230.4 2250 230.4" /><path class="link" d="M 2000 259.2 C 2125 259.2 2125 259.2 2250 259.2" /><path class="link" d="M 2000 259.2 C 2125 259.2 2125 288 2250 288" /><path class="link" d="M 2000 259.2 C 2125 259.2 2125 316.8 2250 316.8" /><path class="link" d="M 1750 410.4 C 1875 410.4 1875 201.6 2000 201.6" /><path class="link" d="M 1750 410.4 C 1875 410.4 1875 230.4 2000 230.4" /><path class="link" d="M 1750 410.4 C 1875 410.4 1875 259.2 2000 259.2" /><path class="link" d="M 1750 410.4 C 1875 410.4 1875 302.4 2000 302.4" /><path class="link" d="M 1750 410.4 C 1875 410.4 1875 345.6 2000 345.6" /><path class="link" d="M 1750 410.4 C 1875 410.4 1875 388.8 2000 388.8" /><path class="link" d="M 1750 410.4 C 1875 410.4 1875 432 2000 432" /><path class="link" d="M 1750 410.4 C 1875 410.4 1875 619.2 2000 619.2" /><path class="link" d="M 1500 410.4 C 1625 410.4 1625 410.4 1750 410.4" /><path class="link" d="M 1750 144 C 1875 144 1875 144 2000 144" /><path class="link" d="M 1750 86.4 C 1875 86.4 1875 86.4 2000 86.4" /><path class="link" d="M 1500 86.4 C 1625 86.4 1625 28.8 1750 28.8" /><path class="link" d="M 1500 86.4 C 1625 86.4 1625 57.6 1750 57.6" /><path class="link" d="M 1500 86.4 C 1625 86.4 1625 86.4 1750 86.4" /><path class="link" d="M 1500 86.4 C 1625 86.4 1625 115.2 1750 115.2" /><path class="link" d="M 1500 86.4 C 1625 86.4 1625 144 1750 144" /><path class="link" d="M 1250 262.8 C 1375 262.8 1375 57.6 1500 57.6" /><path class="link" d="M 1250 262.8 C 1375 262.8 1375 86.4 1500 86.4" /><path class="link" d="M 1250 262.8 C 1375 262.8 1375 167.4 1500 167.4" /><path class="link" d="M 1250 262.8 C 1375 262.8 1375 248.4 1500 248.4" /><path class="link" d="M 1250 262.8 C 1375 262.8 1375 329.4 1500 329.4" /><path class="link" d="M 1250 262.8 C 1375 262.8 1375 410.4 1500 410.4" /><path class="link" d="M 1250 262.8 C 1375 262.8 1375 439.2 1500 439.2" /><path class="link" d="M 1250 262.8 C 1375 262.8 1375 468 1500 468" /><path class="link" d="M 1000 262.8 C 1125 262.8 1125 262.8 1250 262.8" /><path class="link" d="M 750 262.8 C 875 262.8 875 262.8 1000 262.8" /><path class="link" d="M 500 262.8 C 625 262.8 625 262.8 750 262.8" /><path class="link" d="M 250 262.8 C 375 262.8 375 262.8 500 262.8" /><path class="link" d="M 750 205.2 C 875 205.2 875 205.2 1000 205.2" /><path class="link" d="M 500 205.2 C 625 205.2 625 205.2 750 205.2" /><path class="link" d="M 250 205.2 C 375 205.2 375 205.2 500 205.2" /><path class="link" d="M 0 306 C 125 306 125 176.4 250 176.4" /><path class="link" d="M 0 306 C 125 306 125 205.2 250 205.2" /><path class="link" d="M 0 306 C 125 306 125 262.8 250 262.8" /><path class="link" d="M 0 306 C 125 306 125 320.4 250 320.4" /><path class="link" d="M 0 306 C 125 306 125 378 250 378" /><path class="link" d="M 0 306 C 125 306 125 435.6 250 435.6" /><g class="node tooltip" transform="translate(500 435.6)"><circle style="fill: #fff;" r="4.5" /><text style="fill-opacity: 1;" text-anchor="start" x="10" dy="-0.3em">Codeunit 1020 JobJnlManagement</text><text style="fill-opacity: 1;" text-anchor="start" x="10" dy="0.95em">GetNames()</text></g><g class="node tooltip" transform="translate(250 435.6)"><circle style="fill: #fff;" r="4.5" /><text style="fill-opacity: 1;" text-anchor="start" x="10" dy="-0.3em">Page 201 Job Journal</text><text style="fill-opacity: 1;" text-anchor="start" x="10" dy="0.95em">OnAfterGetCurrRecord()</text></g><g class="node tooltip" transform="translate(750 378)"><circle style="fill: #fff;" r="4.5" /><text style="fill-opacity: 1;" text-anchor="start" x="10" dy="-0.3em">Table 210 Job Journal Line</text><text style="fill-opacity: 1;" text-anchor="start" x="10" dy="0.95em">Line Type - OnValidate()</text></g><g class="node tooltip" transform="translate(500 378)"><circle style="fill: #fff;" r="4.5" /><text style="fill-opacity: 1;" text-anchor="start" x="10" dy="-0.3em">Table 210 Job Journal Line</text><text style="fill-opacity: 1;" text-anchor="start" x="10" dy="0.95em">SetUpNewLine()</text></g><g class="node tooltip" transform="translate(250 378)"><circle style="fill: #fff;" r="4.5" /><text style="fill-opacity: 1;" text-anchor="start" x="10" dy="-0.3em">Page 201 Job Journal</text><text style="fill-opacity: 1;" text-anchor="start" x="10" dy="0.95em">OnNewRecord()</text></g><g class="node tooltip" transform="translate(1000 320.4)"><circle style="fill: #fff;" r="4.5" /><text style="fill-opacity: 1;" text-anchor="start" x="10" dy="-0.3em">Codeunit 408 DimensionManagement</text><text style="fill-opacity: 1;" text-anchor="start" x="10" dy="0.95em">GetGLSetup()</text></g><g class="node tooltip" transform="translate(750 320.4)"><circle style="fill: #fff;" r="4.5" /><text style="fill-opacity: 1;" text-anchor="start" x="10" dy="-0.3em">Codeunit 408 DimensionManagement</text><text style="fill-opacity: 1;" text-anchor="start" x="10" dy="0.95em">GetShortcutDimensions()</text></g><g class="node tooltip" transform="translate(500 320.4)"><circle style="fill: #fff;" r="4.5" /><text style="fill-opacity: 1;" text-anchor="start" x="10" dy="-0.3em">Table 210 Job Journal Line</text><text style="fill-opacity: 1;" text-anchor="start" x="10" dy="0.95em">ShowShortcutDimCode()</text></g><g class="node tooltip" transform="translate(250 320.4)"><circle style="fill: #fff;" r="4.5" /><text style="fill-opacity: 1;" text-anchor="start" x="10" dy="-0.3em">Page 201 Job Journal</text><text style="fill-opacity: 1;" text-anchor="start" x="10" dy="0.95em">OnAfterGetRecord()</text></g><g class="node tooltip" transform="translate(1500 468)"><circle style="fill: #fff;" r="4.5" /><text style="fill-opacity: 1;" text-anchor="start" x="10" dy="-0.3em">Codeunit 7150 Update Item Analysis View</text><text style="fill-opacity: 1;" text-anchor="start" x="10" dy="0.95em">UpdateAll()</text></g><g class="node tooltip" transform="translate(1500 439.2)"><circle style="fill: #fff;" r="4.5" /><text style="fill-opacity: 1;" text-anchor="start" x="10" dy="-0.3em">Codeunit 410 Update Analysis View</text><text style="fill-opacity: 1;" text-anchor="start" x="10" dy="0.95em">UpdateAll()</text></g><g class="node tooltip" transform="translate(2250 691.2)"><circle style="fill: #fff;" r="4.5" /><text style="fill-opacity: 1;" text-anchor="start" x="10" dy="-0.3em">Codeunit 1001 Job Post-Line</text><text style="fill-opacity: 1;" text-anchor="start" x="10" dy="0.95em">InsertPlLineFromLedgEntry()</text></g><g class="node tooltip" transform="translate(2750 662.4)"><circle style="fill: #fff;" r="4.5" /><text style="fill-opacity: 1;" text-anchor="start" x="10" dy="-0.3em">Table 156 Resource</text><text style="fill-opacity: 1;" text-anchor="start" x="10" dy="0.95em">GetQuotedCode()</text></g><g class="node tooltip" transform="translate(2500 662.4)"><circle style="fill: #fff;" r="4.5" /><text style="fill-opacity: 1;" text-anchor="start" x="10" dy="-0.3em">Table 156 Resource</text><text style="fill-opacity: 1;" text-anchor="start" x="10" dy="0.95em">GetUnitOfMeasureFilter()</text></g><g class="node tooltip" transform="translate(2250 662.4)"><circle style="fill: #fff;" r="4.5" /><text style="fill-opacity: 1;" text-anchor="start" x="10" dy="-0.3em">Codeunit 1026 Job Link Usage</text><text style="fill-opacity: 1;" text-anchor="start" x="10" dy="0.95em">FindMatchingJobPlanningLine()</text></g><g class="node tooltip" transform="translate(2500 604.8)"><circle style="fill: #fff;" r="4.5" /><text style="fill-opacity: 1;" text-anchor="start" x="10" dy="-0.3em">Table 167 Job</text><text style="fill-opacity: 1;" text-anchor="start" x="10" dy="0.95em">UpdateOverBudgetValue()</text></g><g class="node tooltip" transform="translate(2250 604.8)"><circle style="fill: #fff;" r="4.5" /><text style="fill-opacity: 1;" text-anchor="start" x="10" dy="-0.3em">Table 169 Job Ledger Entry</text><text style="fill-opacity: 1;" text-anchor="start" x="10" dy="0.95em">OnInsert()</text></g><g class="node tooltip" transform="translate(2250 576)"><circle style="fill: #fff;" r="4.5" /><text style="fill-opacity: 1;" text-anchor="start" x="10" dy="-0.3em">Codeunit 1004 Job Transfer Line</text><text style="fill-opacity: 1;" text-anchor="start" x="10" dy="0.95em">FromJnlLineToLedgEntry()</text></g><g class="node tooltip" transform="translate(2500 547.2)"><circle style="fill: #fff;" r="4.5" /><text style="fill-opacity: 1;" text-anchor="start" x="10" dy="-0.3em">Table 4 Currency</text><text style="fill-opacity: 1;" text-anchor="start" x="10" dy="0.95em">InitRoundingPrecision()</text></g><g class="node tooltip" transform="translate(2250 547.2)"><circle style="fill: #fff;" r="4.5" /><text style="fill-opacity: 1;" text-anchor="start" x="10" dy="-0.3em">Codeunit 1012 Job Jnl.-Post Line</text><text style="fill-opacity: 1;" text-anchor="start" x="10" dy="0.95em">SetCurrency()</text></g><g class="node tooltip" transform="translate(2000 619.2)"><circle style="fill: #fff;" r="4.5" /><text style="fill-opacity: 1;" text-anchor="start" x="10" dy="-0.3em">Codeunit 1012 Job Jnl.-Post Line</text><text style="fill-opacity: 1;" text-anchor="start" x="10" dy="0.95em">CreateJobLedgEntry()</text></g><g class="node tooltip" transform="translate(2500 489.6)"><circle style="fill: #fff;" r="4.5" /><text style="fill-opacity: 1;" text-anchor="start" x="10" dy="-0.3em">Codeunit 212 Res. Jnl.-Post Line</text><text style="fill-opacity: 1;" text-anchor="start" x="10" dy="0.95em">IsChargable()</text></g><g class="node tooltip" transform="translate(2500 460.8)"><circle style="fill: #fff;" r="4.5" /><text style="fill-opacity: 1;" text-anchor="start" x="10" dy="-0.3em">Codeunit 212 Res. Jnl.-Post Line</text><text style="fill-opacity: 1;" text-anchor="start" x="10" dy="0.95em">PostTimeSheetDetail()</text></g><g class="node tooltip" transform="translate(2500 432)"><circle style="fill: #fff;" r="4.5" /><text style="fill-opacity: 1;" text-anchor="start" x="10" dy="-0.3em">Codeunit 212 Res. Jnl.-Post Line</text><text style="fill-opacity: 1;" text-anchor="start" x="10" dy="0.95em">GetGLSetup()</text></g><g class="node tooltip" transform="translate(3000 446.4)"><circle style="fill: #fff;" r="4.5" /><text style="fill-opacity: 1;" text-anchor="start" x="10" dy="-0.3em">Codeunit 408 DimensionManagement</text><text style="fill-opacity: 1;" text-anchor="start" x="10" dy="0.95em">CheckBlockedDimAndValues()</text></g><g class="node tooltip" transform="translate(2750 446.4)"><circle style="fill: #fff;" r="4.5" /><text style="fill-opacity: 1;" text-anchor="start" x="10" dy="-0.3em">Codeunit 408 DimensionManagement</text><text style="fill-opacity: 1;" text-anchor="start" x="10" dy="0.95em">CheckDimValuePosting()</text></g><g class="node tooltip" transform="translate(3000 388.8)"><circle style="fill: #fff;" r="4.5" /><text style="fill-opacity: 1;" text-anchor="start" x="10" dy="-0.3em">Codeunit 408 DimensionManagement</text><text style="fill-opacity: 1;" text-anchor="start" x="10" dy="0.95em">CheckDimComb()</text></g><g class="node tooltip" transform="translate(2750 388.8)"><circle style="fill: #fff;" r="4.5" /><text style="fill-opacity: 1;" text-anchor="start" x="10" dy="-0.3em">Codeunit 408 DimensionManagement</text><text style="fill-opacity: 1;" text-anchor="start" x="10" dy="0.95em">CheckDimIDComb()</text></g><g class="node tooltip" transform="translate(2750 360)"><circle style="fill: #fff;" r="4.5" /><text style="fill-opacity: 1;" text-anchor="start" x="10" dy="-0.3em">Table 207 Res. Journal Line</text><text style="fill-opacity: 1;" text-anchor="start" x="10" dy="0.95em">EmptyLine()</text></g><g class="node tooltip" transform="translate(2500 403.2)"><circle style="fill: #fff;" r="4.5" /><text style="fill-opacity: 1;" text-anchor="start" x="10" dy="-0.3em">Codeunit 211 Res. Jnl.-Check Line</text><text style="fill-opacity: 1;" text-anchor="start" x="10" dy="0.95em">RunCheck()</text></g><g class="node tooltip" transform="translate(2500 374.4)"><circle style="fill: #fff;" r="4.5" /><text style="fill-opacity: 1;" text-anchor="start" x="10" dy="-0.3em">Table 207 Res. Journal Line</text><text style="fill-opacity: 1;" text-anchor="start" x="10" dy="0.95em">EmptyLine()</text></g><g class="node tooltip" transform="translate(2250 432)"><circle style="fill: #fff;" r="4.5" /><text style="fill-opacity: 1;" text-anchor="start" x="10" dy="-0.3em">Codeunit 212 Res. Jnl.-Post Line</text><text style="fill-opacity: 1;" text-anchor="start" x="10" dy="0.95em">Code()</text></g><g class="node tooltip" transform="translate(2000 432)"><circle style="fill: #fff;" r="4.5" /><text style="fill-opacity: 1;" text-anchor="start" x="10" dy="-0.3em">Codeunit 212 Res. Jnl.-Post Line</text><text style="fill-opacity: 1;" text-anchor="start" x="10" dy="0.95em">RunWithCheck()</text></g><g class="node tooltip" transform="translate(2000 388.8)"><circle style="fill: #fff;" r="4.5" /><text style="fill-opacity: 1;" text-anchor="start" x="10" dy="-0.3em">Codeunit 1012 Job Jnl.-Post Line</text><text style="fill-opacity: 1;" text-anchor="start" x="10" dy="0.95em">InitResJnlLine()</text></g><g class="node tooltip" transform="translate(2000 345.6)"><circle style="fill: #fff;" r="4.5" /><text style="fill-opacity: 1;" text-anchor="start" x="10" dy="-0.3em">Codeunit 1012 Job Jnl.-Post Line</text><text style="fill-opacity: 1;" text-anchor="start" x="10" dy="0.95em">GetGLSetup()</text></g><g class="node tooltip" transform="translate(2000 302.4)"><circle style="fill: #fff;" r="4.5" /><text style="fill-opacity: 1;" text-anchor="start" x="10" dy="-0.3em">Table 167 Job</text><text style="fill-opacity: 1;" text-anchor="start" x="10" dy="0.95em">TestBlocked()</text></g><g class="node tooltip" transform="translate(2500 316.8)"><circle style="fill: #fff;" r="4.5" /><text style="fill-opacity: 1;" text-anchor="start" x="10" dy="-0.3em">Codeunit 408 DimensionManagement</text><text style="fill-opacity: 1;" text-anchor="start" x="10" dy="0.95em">CheckBlockedDimAndValues()</text></g><g class="node tooltip" transform="translate(2250 316.8)"><circle style="fill: #fff;" r="4.5" /><text style="fill-opacity: 1;" text-anchor="start" x="10" dy="-0.3em">Codeunit 408 DimensionManagement</text><text style="fill-opacity: 1;" text-anchor="start" x="10" dy="0.95em">CheckDimValuePosting()</text></g><g class="node tooltip" transform="translate(2250 288)"><circle style="fill: #fff;" r="4.5" /><text style="fill-opacity: 1;" text-anchor="start" x="10" dy="-0.3em">Codeunit 408 DimensionManagement</text><text style="fill-opacity: 1;" text-anchor="start" x="10" dy="0.95em">TypeToTableID2()</text></g><g class="node tooltip" transform="translate(2500 259.2)"><circle style="fill: #fff;" r="4.5" /><text style="fill-opacity: 1;" text-anchor="start" x="10" dy="-0.3em">Codeunit 408 DimensionManagement</text><text style="fill-opacity: 1;" text-anchor="start" x="10" dy="0.95em">CheckDimComb()</text></g><g class="node tooltip" transform="translate(2250 259.2)"><circle style="fill: #fff;" r="4.5" /><text style="fill-opacity: 1;" text-anchor="start" x="10" dy="-0.3em">Codeunit 408 DimensionManagement</text><text style="fill-opacity: 1;" text-anchor="start" x="10" dy="0.95em">CheckDimIDComb()</text></g><g class="node tooltip" transform="translate(2250 230.4)"><circle style="fill: #fff;" r="4.5" /><text style="fill-opacity: 1;" text-anchor="start" x="10" dy="-0.3em">Codeunit 1011 Job Jnl.-Check Line</text><text style="fill-opacity: 1;" text-anchor="start" x="10" dy="0.95em">DateNotAllowed()</text></g><g class="node tooltip" transform="translate(2250 201.6)"><circle style="fill: #fff;" r="4.5" /><text style="fill-opacity: 1;" text-anchor="start" x="10" dy="-0.3em">Table 210 Job Journal Line</text><text style="fill-opacity: 1;" text-anchor="start" x="10" dy="0.95em">EmptyLine()</text></g><g class="node tooltip" transform="translate(2000 259.2)"><circle style="fill: #fff;" r="4.5" /><text style="fill-opacity: 1;" text-anchor="start" x="10" dy="-0.3em">Codeunit 1011 Job Jnl.-Check Line</text><text style="fill-opacity: 1;" text-anchor="start" x="10" dy="0.95em">RunCheck()</text></g><g class="node tooltip" transform="translate(2000 230.4)"><circle style="fill: #fff;" r="4.5" /><text style="fill-opacity: 1;" text-anchor="start" x="10" dy="-0.3em">Table 210 Job Journal Line</text><text style="fill-opacity: 1;" text-anchor="start" x="10" dy="0.95em">EmptyLine()</text></g><g class="node tooltip" transform="translate(2000 201.6)"><circle style="fill: #fff;" r="4.5" /><text style="fill-opacity: 1;" text-anchor="start" x="10" dy="-0.3em">Codeunit 1012 Job Jnl.-Post Line</text><text style="fill-opacity: 1;" text-anchor="start" x="10" dy="0.95em">GetGLSetup()</text></g><g class="node tooltip" transform="translate(1750 410.4)"><circle style="fill: #fff;" r="4.5" /><text style="fill-opacity: 1;" text-anchor="start" x="10" dy="-0.3em">Codeunit 1012 Job Jnl.-Post Line</text><text style="fill-opacity: 1;" text-anchor="start" x="10" dy="0.95em">Code()</text></g><g class="node tooltip" transform="translate(1500 410.4)"><circle style="fill: #fff;" r="4.5" /><text style="fill-opacity: 1;" text-anchor="start" x="10" dy="-0.3em">Codeunit 1012 Job Jnl.-Post Line</text><text style="fill-opacity: 1;" text-anchor="start" x="10" dy="0.95em">RunWithCheck()</text></g><g class="node tooltip" transform="translate(1500 329.4)"><circle style="fill: #fff;" r="4.5" /><text style="fill-opacity: 1;" text-anchor="start" x="10" dy="-0.3em">Codeunit 1013 Job Jnl.-Post Batch</text><text style="fill-opacity: 1;" text-anchor="start" x="10" dy="0.95em">MakeRecurringTexts()</text></g><g class="node tooltip" transform="translate(1500 248.4)"><circle style="fill: #fff;" r="4.5" /><text style="fill-opacity: 1;" text-anchor="start" x="10" dy="-0.3em">Table 210 Job Journal Line</text><text style="fill-opacity: 1;" text-anchor="start" x="10" dy="0.95em">EmptyLine()</text></g><g class="node tooltip" transform="translate(1500 167.4)"><circle style="fill: #fff;" r="4.5" /><text style="fill-opacity: 1;" text-anchor="start" x="10" dy="-0.3em">Table 210 Job Journal Line</text><text style="fill-opacity: 1;" text-anchor="start" x="10" dy="0.95em">EmptyLine()</text></g><g class="node tooltip" transform="translate(2000 144)"><circle style="fill: #fff;" r="4.5" /><text style="fill-opacity: 1;" text-anchor="start" x="10" dy="-0.3em">Codeunit 408 DimensionManagement</text><text style="fill-opacity: 1;" text-anchor="start" x="10" dy="0.95em">CheckBlockedDimAndValues()</text></g><g class="node tooltip" transform="translate(1750 144)"><circle style="fill: #fff;" r="4.5" /><text style="fill-opacity: 1;" text-anchor="start" x="10" dy="-0.3em">Codeunit 408 DimensionManagement</text><text style="fill-opacity: 1;" text-anchor="start" x="10" dy="0.95em">CheckDimValuePosting()</text></g><g class="node tooltip" transform="translate(1750 115.2)"><circle style="fill: #fff;" r="4.5" /><text style="fill-opacity: 1;" text-anchor="start" x="10" dy="-0.3em">Codeunit 408 DimensionManagement</text><text style="fill-opacity: 1;" text-anchor="start" x="10" dy="0.95em">TypeToTableID2()</text></g><g class="node tooltip" transform="translate(2000 86.4)"><circle style="fill: #fff;" r="4.5" /><text style="fill-opacity: 1;" text-anchor="start" x="10" dy="-0.3em">Codeunit 408 DimensionManagement</text><text style="fill-opacity: 1;" text-anchor="start" x="10" dy="0.95em">CheckDimComb()</text></g><g class="node tooltip" transform="translate(1750 86.4)"><circle style="fill: #fff;" r="4.5" /><text style="fill-opacity: 1;" text-anchor="start" x="10" dy="-0.3em">Codeunit 408 DimensionManagement</text><text style="fill-opacity: 1;" text-anchor="start" x="10" dy="0.95em">CheckDimIDComb()</text></g><g class="node tooltip" transform="translate(1750 57.6)"><circle style="fill: #fff;" r="4.5" /><text style="fill-opacity: 1;" text-anchor="start" x="10" dy="-0.3em">Codeunit 1011 Job Jnl.-Check Line</text><text style="fill-opacity: 1;" text-anchor="start" x="10" dy="0.95em">DateNotAllowed()</text></g><g class="node tooltip" transform="translate(1750 28.8)"><circle style="fill: #fff;" r="4.5" /><text style="fill-opacity: 1;" text-anchor="start" x="10" dy="-0.3em">Table 210 Job Journal Line</text><text style="fill-opacity: 1;" text-anchor="start" x="10" dy="0.95em">EmptyLine()</text></g><g class="node tooltip" transform="translate(1500 86.4)"><circle style="fill: #fff;" r="4.5" /><text style="fill-opacity: 1;" text-anchor="start" x="10" dy="-0.3em">Codeunit 1011 Job Jnl.-Check Line</text><text style="fill-opacity: 1;" text-anchor="start" x="10" dy="0.95em">RunCheck()</text></g><g class="node tooltip" transform="translate(1500 57.6)"><circle style="fill: #fff;" r="4.5" /><text style="fill-opacity: 1;" text-anchor="start" x="10" dy="-0.3em">Codeunit 1013 Job Jnl.-Post Batch</text><text style="fill-opacity: 1;" text-anchor="start" x="10" dy="0.95em">CheckRecurringLine()</text></g><g class="node tooltip" transform="translate(1250 262.8)"><circle style="fill: #fff;" r="4.5" /><text style="fill-opacity: 1;" text-anchor="start" x="10" dy="-0.3em">Codeunit 1013 Job Jnl.-Post Batch</text><text style="fill-opacity: 1;" text-anchor="start" x="10" dy="0.95em">Code()</text></g><g class="node tooltip" transform="translate(1000 262.8)"><circle style="fill: #fff;" r="4.5" /><text style="fill-opacity: 1;" text-anchor="start" x="10" dy="-0.3em">Codeunit 1013 Job Jnl.-Post Batch</text><text style="fill-opacity: 1;" text-anchor="start" x="10" dy="0.95em">OnRun()</text></g><g class="node tooltip" transform="translate(750 262.8)"><circle style="fill: #fff;" r="4.5" /><text style="fill-opacity: 1;" text-anchor="start" x="10" dy="-0.3em">Codeunit 1021 Job Jnl.-Post</text><text style="fill-opacity: 1;" text-anchor="start" x="10" dy="0.95em">Code()</text></g><g class="node tooltip" transform="translate(500 262.8)"><circle style="fill: #fff;" r="4.5" /><text style="fill-opacity: 1;" text-anchor="start" x="10" dy="-0.3em">Codeunit 1021 Job Jnl.-Post</text><text style="fill-opacity: 1;" text-anchor="start" x="10" dy="0.95em">OnRun()</text></g><g class="node tooltip" transform="translate(250 262.8)"><circle style="fill: #fff;" r="4.5" /><text style="fill-opacity: 1;" text-anchor="start" x="10" dy="-0.3em">Page 201 Job Journal</text><text style="fill-opacity: 1;" text-anchor="start" x="10" dy="0.95em">&lt;Action56&gt; - OnAction()</text></g><g class="node tooltip" transform="translate(1000 205.2)"><circle style="fill: #fff;" r="4.5" /><text style="fill-opacity: 1;" text-anchor="start" x="10" dy="-0.3em">Codeunit 408 DimensionManagement</text><text style="fill-opacity: 1;" text-anchor="start" x="10" dy="0.95em">GetGLSetup()</text></g><g class="node tooltip" transform="translate(750 205.2)"><circle style="fill: #fff;" r="4.5" /><text style="fill-opacity: 1;" text-anchor="start" x="10" dy="-0.3em">Codeunit 408 DimensionManagement</text><text style="fill-opacity: 1;" text-anchor="start" x="10" dy="0.95em">GetShortcutDimensions()</text></g><g class="node tooltip" transform="translate(500 205.2)"><circle style="fill: #fff;" r="4.5" /><text style="fill-opacity: 1;" text-anchor="start" x="10" dy="-0.3em">Table 210 Job Journal Line</text><text style="fill-opacity: 1;" text-anchor="start" x="10" dy="0.95em">ShowShortcutDimCode()</text></g><g class="node tooltip" transform="translate(250 205.2)"><circle style="fill: #fff;" r="4.5" /><text style="fill-opacity: 1;" text-anchor="start" x="10" dy="-0.3em">Page 201 Job Journal</text><text style="fill-opacity: 1;" text-anchor="start" x="10" dy="0.95em">OnAfterGetRecord()</text></g><g class="node tooltip" transform="translate(250 176.4)"><circle style="fill: #fff;" r="4.5" /><text style="fill-opacity: 1;" text-anchor="start" x="10" dy="-0.3em">Page 681 Report Inbox Part</text><text style="fill-opacity: 1;" text-anchor="start" x="10" dy="0.95em">PingPong::Pong()</text></g><g class="node tooltip" transform="translate(0 306)"><circle style="fill: #fff;" r="4.5" /><text style="fill-opacity: 1;" text-anchor="start" x="10" dy="-0.3em">root</text><text style="fill-opacity: 1;" text-anchor="start" x="10" dy="0.95em" /></g></g></svg>