<svg xmlns="http://www.w3.org/2000/svg" width="2700" height="810"><style>.node {cursor: pointer;}.node circle {fill: #fff;stroke: steelblue;stroke-width: 1.5px;}.node text {font: 10px sans-serif;}.link {fill: none;stroke: #eee;stroke-width: 1.5px;}</style><g class="node" transform="translate(20 20)"><text style="fill-opacity: 1;" dy="1em" x="10">Page 201 Job Journal</text><text style="fill-opacity: 1;" dy="2em" x="10">Resource posting</text><path class="link" d="M200,446.9347826086957C300,446.9347826086957 300,446.9347826086957 400,446.9347826086957"></path><path class="link" d="M400,393.3695652173913C500,393.3695652173913 500,393.3695652173913 600,393.3695652173913"></path><path class="link" d="M200,393.3695652173913C300,393.3695652173913 300,393.3695652173913 400,393.3695652173913"></path><path class="link" d="M600,339.804347826087C700,339.804347826087 700,339.804347826087 800,339.804347826087"></path><path class="link" d="M400,339.804347826087C500,339.804347826087 500,339.804347826087 600,339.804347826087"></path><path class="link" d="M200,339.804347826087C300,339.804347826087 300,339.804347826087 400,339.804347826087"></path><path class="link" d="M2000,716.4347826086957C2100,716.4347826086957 2100,716.4347826086957 2200,716.4347826086957"></path><path class="link" d="M1800,716.4347826086957C1900,716.4347826086957 1900,716.4347826086957 2000,716.4347826086957"></path><path class="link" d="M1800,662.8695652173914C1900,662.8695652173914 1900,662.8695652173914 2000,662.8695652173914"></path><path class="link" d="M1800,582.5217391304349C1900,582.5217391304349 1900,582.5217391304349 2000,582.5217391304349"></path><path class="link" d="M1600,662.8695652173914C1700,662.8695652173914 1700,582.5217391304349 1800,582.5217391304349"></path><path class="link" d="M1600,662.8695652173914C1700,662.8695652173914 1700,609.304347826087 1800,609.304347826087"></path><path class="link" d="M1600,662.8695652173914C1700,662.8695652173914 1700,636.0869565217391 1800,636.0869565217391"></path><path class="link" d="M1600,662.8695652173914C1700,662.8695652173914 1700,662.8695652173914 1800,662.8695652173914"></path><path class="link" d="M1600,662.8695652173914C1700,662.8695652173914 1700,716.4347826086957 1800,716.4347826086957"></path><path class="link" d="M1600,662.8695652173914C1700,662.8695652173914 1700,743.2173913043479 1800,743.2173913043479"></path><path class="link" d="M2200,441.9130434782609C2300,441.9130434782609 2300,441.9130434782609 2400,441.9130434782609"></path><path class="link" d="M2200,374.9565217391305C2300,374.9565217391305 2300,361.56521739130443 2400,361.56521739130443"></path><path class="link" d="M2200,374.9565217391305C2300,374.9565217391305 2300,388.3478260869566 2400,388.3478260869566"></path><path class="link" d="M2000,395.0434782608696C2100,395.0434782608696 2100,348.1739130434783 2200,348.1739130434783"></path><path class="link" d="M2000,395.0434782608696C2100,395.0434782608696 2100,374.9565217391305 2200,374.9565217391305"></path><path class="link" d="M2000,395.0434782608696C2100,395.0434782608696 2100,441.9130434782609 2200,441.9130434782609"></path><path class="link" d="M1800,448.60869565217394C1900,448.60869565217394 1900,368.2608695652175 2000,368.2608695652175"></path><path class="link" d="M1800,448.60869565217394C1900,448.60869565217394 1900,395.0434782608696 2000,395.0434782608696"></path><path class="link" d="M1800,448.60869565217394C1900,448.60869565217394 1900,421.8260869565218 2000,421.8260869565218"></path><path class="link" d="M1800,448.60869565217394C1900,448.60869565217394 1900,448.60869565217394 2000,448.60869565217394"></path><path class="link" d="M1800,448.60869565217394C1900,448.60869565217394 1900,475.3913043478261 2000,475.3913043478261"></path><path class="link" d="M1800,448.60869565217394C1900,448.60869565217394 1900,502.1739130434783 2000,502.1739130434783"></path><path class="link" d="M1800,448.60869565217394C1900,448.60869565217394 1900,528.9565217391305 2000,528.9565217391305"></path><path class="link" d="M1600,448.60869565217394C1700,448.60869565217394 1700,448.60869565217394 1800,448.60869565217394"></path><path class="link" d="M1800,314.69565217391306C1900,314.69565217391306 1900,314.69565217391306 2000,314.69565217391306"></path><path class="link" d="M1800,247.73913043478262C1900,247.73913043478262 1900,234.34782608695653 2000,234.34782608695653"></path><path class="link" d="M1800,247.73913043478262C1900,247.73913043478262 1900,261.1304347826087 2000,261.1304347826087"></path><path class="link" d="M1600,254.43478260869566C1700,254.43478260869566 1700,194.1739130434783 1800,194.1739130434783"></path><path class="link" d="M1600,254.43478260869566C1700,254.43478260869566 1700,220.95652173913044 1800,220.95652173913044"></path><path class="link" d="M1600,254.43478260869566C1700,254.43478260869566 1700,247.73913043478262 1800,247.73913043478262"></path><path class="link" d="M1600,254.43478260869566C1700,254.43478260869566 1700,281.21739130434787 1800,281.21739130434787"></path><path class="link" d="M1600,254.43478260869566C1700,254.43478260869566 1700,314.69565217391306 1800,314.69565217391306"></path><path class="link" d="M1400,431.8695652173913C1500,431.8695652173913 1500,200.86956521739134 1600,200.86956521739134"></path><path class="link" d="M1400,431.8695652173913C1500,431.8695652173913 1500,227.6521739130435 1600,227.6521739130435"></path><path class="link" d="M1400,431.8695652173913C1500,431.8695652173913 1500,254.43478260869566 1600,254.43478260869566"></path><path class="link" d="M1400,431.8695652173913C1500,431.8695652173913 1500,293.26956521739135 1600,293.26956521739135"></path><path class="link" d="M1400,431.8695652173913C1500,431.8695652173913 1500,332.104347826087 1600,332.104347826087"></path><path class="link" d="M1400,431.8695652173913C1500,431.8695652173913 1500,370.93913043478267 1600,370.93913043478267"></path><path class="link" d="M1400,431.8695652173913C1500,431.8695652173913 1500,409.77391304347833 1600,409.77391304347833"></path><path class="link" d="M1400,431.8695652173913C1500,431.8695652173913 1500,448.60869565217394 1600,448.60869565217394"></path><path class="link" d="M1400,431.8695652173913C1500,431.8695652173913 1500,662.8695652173914 1600,662.8695652173914"></path><path class="link" d="M1200,431.8695652173913C1300,431.8695652173913 1300,431.8695652173913 1400,431.8695652173913"></path><path class="link" d="M1400,147.30434782608697C1500,147.30434782608697 1500,147.30434782608697 1600,147.30434782608697"></path><path class="link" d="M1400,80.34782608695653C1500,80.34782608695653 1500,66.95652173913044 1600,66.95652173913044"></path><path class="link" d="M1400,80.34782608695653C1500,80.34782608695653 1500,93.73913043478261 1600,93.73913043478261"></path><path class="link" d="M1200,87.04347826086958C1300,87.04347826086958 1300,26.782608695652176 1400,26.782608695652176"></path><path class="link" d="M1200,87.04347826086958C1300,87.04347826086958 1300,53.56521739130435 1400,53.56521739130435"></path><path class="link" d="M1200,87.04347826086958C1300,87.04347826086958 1300,80.34782608695653 1400,80.34782608695653"></path><path class="link" d="M1200,87.04347826086958C1300,87.04347826086958 1300,113.82608695652175 1400,113.82608695652175"></path><path class="link" d="M1200,87.04347826086958C1300,87.04347826086958 1300,147.30434782608697 1400,147.30434782608697"></path><path class="link" d="M1000,286.2391304347826C1100,286.2391304347826 1100,60.2608695652174 1200,60.2608695652174"></path><path class="link" d="M1000,286.2391304347826C1100,286.2391304347826 1100,87.04347826086958 1200,87.04347826086958"></path><path class="link" d="M1000,286.2391304347826C1100,286.2391304347826 1100,173.25000000000006 1200,173.25000000000006"></path><path class="link" d="M1000,286.2391304347826C1100,286.2391304347826 1100,259.4565217391305 1200,259.4565217391305"></path><path class="link" d="M1000,286.2391304347826C1100,286.2391304347826 1100,345.66304347826093 1200,345.66304347826093"></path><path class="link" d="M1000,286.2391304347826C1100,286.2391304347826 1100,431.8695652173913 1200,431.8695652173913"></path><path class="link" d="M1000,286.2391304347826C1100,286.2391304347826 1100,458.6521739130435 1200,458.6521739130435"></path><path class="link" d="M1000,286.2391304347826C1100,286.2391304347826 1100,485.4347826086957 1200,485.4347826086957"></path><path class="link" d="M1000,286.2391304347826C1100,286.2391304347826 1100,512.2173913043479 1200,512.2173913043479"></path><path class="link" d="M800,286.2391304347826C900,286.2391304347826 900,286.2391304347826 1000,286.2391304347826"></path><path class="link" d="M600,286.2391304347826C700,286.2391304347826 700,286.2391304347826 800,286.2391304347826"></path><path class="link" d="M400,286.2391304347826C500,286.2391304347826 500,286.2391304347826 600,286.2391304347826"></path><path class="link" d="M200,286.2391304347826C300,286.2391304347826 300,286.2391304347826 400,286.2391304347826"></path><path class="link" d="M600,232.67391304347828C700,232.67391304347828 700,232.67391304347828 800,232.67391304347828"></path><path class="link" d="M400,232.67391304347828C500,232.67391304347828 500,232.67391304347828 600,232.67391304347828"></path><path class="link" d="M200,232.67391304347828C300,232.67391304347828 300,232.67391304347828 400,232.67391304347828"></path><path class="link" d="M0,339.804347826087C100,339.804347826087 100,232.67391304347828 200,232.67391304347828"></path><path class="link" d="M0,339.804347826087C100,339.804347826087 100,286.2391304347826 200,286.2391304347826"></path><path class="link" d="M0,339.804347826087C100,339.804347826087 100,339.804347826087 200,339.804347826087"></path><path class="link" d="M0,339.804347826087C100,339.804347826087 100,393.3695652173913 200,393.3695652173913"></path><path class="link" d="M0,339.804347826087C100,339.804347826087 100,446.9347826086957 200,446.9347826086957"></path><g class="node" transform="translate(400,446.9347839355469)"><circle r="4.5" style="fill: rgb(255, 255, 255);"></circle><text x="10" dy="-0.3em" text-anchor="start" style="fill-opacity: 1;">Codeunit 1020 JobJnlManagement</text><text x="10" dy="0.95em" text-anchor="start" style="fill-opacity: 1;">GetNames()</text></g><g class="node" transform="translate(200,446.9347839355469)"><circle r="4.5" style="fill: rgb(255, 255, 255);"></circle><text x="10" dy="-0.3em" text-anchor="start" style="fill-opacity: 1;">Page 201 Job Journal</text><text x="10" dy="0.95em" text-anchor="start" style="fill-opacity: 1;">OnAfterGetCurrRecord()</text></g><g class="node" transform="translate(600,393.36956787109375)"><circle r="4.5" style="fill: rgb(255, 255, 255);"></circle><text x="10" dy="-0.3em" text-anchor="start" style="fill-opacity: 1;">Table 210 Job Journal Line</text><text x="10" dy="0.95em" text-anchor="start" style="fill-opacity: 1;">Line Type - OnValidate()</text></g><g class="node" transform="translate(400,393.36956787109375)"><circle r="4.5" style="fill: rgb(255, 255, 255);"></circle><text x="10" dy="-0.3em" text-anchor="start" style="fill-opacity: 1;">Table 210 Job Journal Line</text><text x="10" dy="0.95em" text-anchor="start" style="fill-opacity: 1;">SetUpNewLine()</text></g><g class="node" transform="translate(200,393.36956787109375)"><circle r="4.5" style="fill: rgb(255, 255, 255);"></circle><text x="10" dy="-0.3em" text-anchor="start" style="fill-opacity: 1;">Page 201 Job Journal</text><text x="10" dy="0.95em" text-anchor="start" style="fill-opacity: 1;">OnNewRecord()</text></g><g class="node" transform="translate(800,339.8043518066406)"><circle r="4.5" style="fill: rgb(255, 255, 255);"></circle><text x="10" dy="-0.3em" text-anchor="start" style="fill-opacity: 1;">Codeunit 408 DimensionManagement</text><text x="10" dy="0.95em" text-anchor="start" style="fill-opacity: 1;">GetGLSetup()</text></g><g class="node" transform="translate(600,339.8043518066406)"><circle r="4.5" style="fill: rgb(255, 255, 255);"></circle><text x="10" dy="-0.3em" text-anchor="start" style="fill-opacity: 1;">Codeunit 408 DimensionManagement</text><text x="10" dy="0.95em" text-anchor="start" style="fill-opacity: 1;">GetShortcutDimensions()</text></g><g class="node" transform="translate(400,339.8043518066406)"><circle r="4.5" style="fill: rgb(255, 255, 255);"></circle><text x="10" dy="-0.3em" text-anchor="start" style="fill-opacity: 1;">Table 210 Job Journal Line</text><text x="10" dy="0.95em" text-anchor="start" style="fill-opacity: 1;">ShowShortcutDimCode()</text></g><g class="node" transform="translate(200,339.8043518066406)"><circle r="4.5" style="fill: rgb(255, 255, 255);"></circle><text x="10" dy="-0.3em" text-anchor="start" style="fill-opacity: 1;">Page 201 Job Journal</text><text x="10" dy="0.95em" text-anchor="start" style="fill-opacity: 1;">OnAfterGetRecord()</text></g><g class="node" transform="translate(1200,512.2174072265625)"><circle r="4.5" style="fill: rgb(255, 255, 255);"></circle><text x="10" dy="-0.3em" text-anchor="start" style="fill-opacity: 1;">Codeunit 7150 Update Item Analysis View</text><text x="10" dy="0.95em" text-anchor="start" style="fill-opacity: 1;">UpdateAll()</text></g><g class="node" transform="translate(1200,485.4347839355469)"><circle r="4.5" style="fill: rgb(255, 255, 255);"></circle><text x="10" dy="-0.3em" text-anchor="start" style="fill-opacity: 1;">Codeunit 410 Update Analysis View</text><text x="10" dy="0.95em" text-anchor="start" style="fill-opacity: 1;">UpdateAll()</text></g><g class="node" transform="translate(1200,458.65216064453125)"><circle r="4.5" style="fill: rgb(255, 0, 0);"></circle><text x="10" dy="0.2em" text-anchor="start" style="fill-opacity: 1;">            JobJnlLine3.DELETE;</text></g><g class="node" transform="translate(1800,743.2174072265625)"><circle r="4.5" style="fill: rgb(255, 255, 255);"></circle><text x="10" dy="-0.3em" text-anchor="start" style="fill-opacity: 1;">Codeunit 1001 Job Post-Line</text><text x="10" dy="0.95em" text-anchor="start" style="fill-opacity: 1;">InsertPlLineFromLedgEntry()</text></g><g class="node" transform="translate(2200,716.4347534179688)"><circle r="4.5" style="fill: rgb(255, 255, 255);"></circle><text x="10" dy="-0.3em" text-anchor="start" style="fill-opacity: 1;">Table 156 Resource</text><text x="10" dy="0.95em" text-anchor="start" style="fill-opacity: 1;">GetQuotedCode()</text></g><g class="node" transform="translate(2000,716.4347534179688)"><circle r="4.5" style="fill: rgb(255, 255, 255);"></circle><text x="10" dy="-0.3em" text-anchor="start" style="fill-opacity: 1;">Table 156 Resource</text><text x="10" dy="0.95em" text-anchor="start" style="fill-opacity: 1;">GetUnitOfMeasureFilter()</text></g><g class="node" transform="translate(1800,716.4347534179688)"><circle r="4.5" style="fill: rgb(255, 255, 255);"></circle><text x="10" dy="-0.3em" text-anchor="start" style="fill-opacity: 1;">Codeunit 1026 Job Link Usage</text><text x="10" dy="0.95em" text-anchor="start" style="fill-opacity: 1;">FindMatchingJobPlanningLine()</text></g><g class="node" transform="translate(2000,662.8695678710938)"><circle r="4.5" style="fill: rgb(255, 255, 255);"></circle><text x="10" dy="-0.3em" text-anchor="start" style="fill-opacity: 1;">Table 167 Job</text><text x="10" dy="0.95em" text-anchor="start" style="fill-opacity: 1;">UpdateOverBudgetValue()</text></g><g class="node" transform="translate(1800,662.8695678710938)"><circle r="4.5" style="fill: rgb(255, 255, 255);"></circle><text x="10" dy="-0.3em" text-anchor="start" style="fill-opacity: 1;">Table 169 Job Ledger Entry</text><text x="10" dy="0.95em" text-anchor="start" style="fill-opacity: 1;">OnInsert()</text></g><g class="node" transform="translate(1800,636.0869750976562)"><circle r="4.5" style="fill: rgb(0, 255, 0);"></circle><text x="10" dy="0.2em" text-anchor="start" style="fill-opacity: 1;">  JobLedgEntry.INSERT(TRUE);</text></g><g class="node" transform="translate(1800,609.3043212890625)"><circle r="4.5" style="fill: rgb(255, 255, 255);"></circle><text x="10" dy="-0.3em" text-anchor="start" style="fill-opacity: 1;">Codeunit 1004 Job Transfer Line</text><text x="10" dy="0.95em" text-anchor="start" style="fill-opacity: 1;">FromJnlLineToLedgEntry()</text></g><g class="node" transform="translate(2000,582.521728515625)"><circle r="4.5" style="fill: rgb(255, 255, 255);"></circle><text x="10" dy="-0.3em" text-anchor="start" style="fill-opacity: 1;">Table 4 Currency</text><text x="10" dy="0.95em" text-anchor="start" style="fill-opacity: 1;">InitRoundingPrecision()</text></g><g class="node" transform="translate(1800,582.521728515625)"><circle r="4.5" style="fill: rgb(255, 255, 255);"></circle><text x="10" dy="-0.3em" text-anchor="start" style="fill-opacity: 1;">Codeunit 1012 Job Jnl.-Post Line</text><text x="10" dy="0.95em" text-anchor="start" style="fill-opacity: 1;">SetCurrency()</text></g><g class="node" transform="translate(1600,662.8695678710938)"><circle r="4.5" style="fill: rgb(255, 255, 255);"></circle><text x="10" dy="-0.3em" text-anchor="start" style="fill-opacity: 1;">Codeunit 1012 Job Jnl.-Post Line</text><text x="10" dy="0.95em" text-anchor="start" style="fill-opacity: 1;">CreateJobLedgEntry()</text></g><g class="node" transform="translate(2000,528.95654296875)"><circle r="4.5" style="fill: rgb(0, 255, 0);"></circle><text x="10" dy="0.2em" text-anchor="start" style="fill-opacity: 1;">    ResLedgEntry.INSERT(TRUE);</text></g><g class="node" transform="translate(2000,502.1739196777344)"><circle r="4.5" style="fill: rgb(255, 255, 255);"></circle><text x="10" dy="-0.3em" text-anchor="start" style="fill-opacity: 1;">Codeunit 212 Res. Jnl.-Post Line</text><text x="10" dy="0.95em" text-anchor="start" style="fill-opacity: 1;">IsChargable()</text></g><g class="node" transform="translate(2000,475.39129638671875)"><circle r="4.5" style="fill: rgb(255, 255, 255);"></circle><text x="10" dy="-0.3em" text-anchor="start" style="fill-opacity: 1;">Codeunit 212 Res. Jnl.-Post Line</text><text x="10" dy="0.95em" text-anchor="start" style="fill-opacity: 1;">PostTimeSheetDetail()</text></g><g class="node" transform="translate(2000,448.60870361328125)"><circle r="4.5" style="fill: rgb(255, 255, 255);"></circle><text x="10" dy="-0.3em" text-anchor="start" style="fill-opacity: 1;">Codeunit 212 Res. Jnl.-Post Line</text><text x="10" dy="0.95em" text-anchor="start" style="fill-opacity: 1;">GetGLSetup()</text></g><g class="node" transform="translate(2000,421.8260803222656)"><circle r="4.5" style="fill: rgb(0, 255, 0);"></circle><text x="10" dy="0.2em" text-anchor="start" style="fill-opacity: 1;">        ResReg.INSERT;</text></g><g class="node" transform="translate(2400,441.9130554199219)"><circle r="4.5" style="fill: rgb(255, 255, 255);"></circle><text x="10" dy="-0.3em" text-anchor="start" style="fill-opacity: 1;">Codeunit 408 DimensionManagement</text><text x="10" dy="0.95em" text-anchor="start" style="fill-opacity: 1;">CheckBlockedDimAndValues()</text></g><g class="node" transform="translate(2200,441.9130554199219)"><circle r="4.5" style="fill: rgb(255, 255, 255);"></circle><text x="10" dy="-0.3em" text-anchor="start" style="fill-opacity: 1;">Codeunit 408 DimensionManagement</text><text x="10" dy="0.95em" text-anchor="start" style="fill-opacity: 1;">CheckDimValuePosting()</text></g><g class="node" transform="translate(2400,388.34783935546875)"><circle r="4.5" style="fill: rgb(255, 255, 255);"></circle><text x="10" dy="-0.3em" text-anchor="start" style="fill-opacity: 1;">Codeunit 408 DimensionManagement</text><text x="10" dy="0.95em" text-anchor="start" style="fill-opacity: 1;">CheckDimComb()</text></g><g class="node" transform="translate(2400,361.5652160644531)"><circle r="4.5" style="fill: rgb(255, 0, 0);"></circle><text x="10" dy="0.2em" text-anchor="start" style="fill-opacity: 1;">  TempDimBuf1.DELETEALL;</text></g><g class="node" transform="translate(2200,374.9565124511719)"><circle r="4.5" style="fill: rgb(255, 255, 255);"></circle><text x="10" dy="-0.3em" text-anchor="start" style="fill-opacity: 1;">Codeunit 408 DimensionManagement</text><text x="10" dy="0.95em" text-anchor="start" style="fill-opacity: 1;">CheckDimIDComb()</text></g><g class="node" transform="translate(2200,348.1739196777344)"><circle r="4.5" style="fill: rgb(255, 255, 255);"></circle><text x="10" dy="-0.3em" text-anchor="start" style="fill-opacity: 1;">Table 207 Res. Journal Line</text><text x="10" dy="0.95em" text-anchor="start" style="fill-opacity: 1;">EmptyLine()</text></g><g class="node" transform="translate(2000,395.0434875488281)"><circle r="4.5" style="fill: rgb(255, 255, 255);"></circle><text x="10" dy="-0.3em" text-anchor="start" style="fill-opacity: 1;">Codeunit 211 Res. Jnl.-Check Line</text><text x="10" dy="0.95em" text-anchor="start" style="fill-opacity: 1;">RunCheck()</text></g><g class="node" transform="translate(2000,368.2608642578125)"><circle r="4.5" style="fill: rgb(255, 255, 255);"></circle><text x="10" dy="-0.3em" text-anchor="start" style="fill-opacity: 1;">Table 207 Res. Journal Line</text><text x="10" dy="0.95em" text-anchor="start" style="fill-opacity: 1;">EmptyLine()</text></g><g class="node" transform="translate(1800,448.60870361328125)"><circle r="4.5" style="fill: rgb(255, 255, 255);"></circle><text x="10" dy="-0.3em" text-anchor="start" style="fill-opacity: 1;">Codeunit 212 Res. Jnl.-Post Line</text><text x="10" dy="0.95em" text-anchor="start" style="fill-opacity: 1;">Code()</text></g><g class="node" transform="translate(1600,448.60870361328125)"><circle r="4.5" style="fill: rgb(255, 255, 255);"></circle><text x="10" dy="-0.3em" text-anchor="start" style="fill-opacity: 1;">Codeunit 212 Res. Jnl.-Post Line</text><text x="10" dy="0.95em" text-anchor="start" style="fill-opacity: 1;">RunWithCheck()</text></g><g class="node" transform="translate(1600,409.77392578125)"><circle r="4.5" style="fill: rgb(255, 255, 255);"></circle><text x="10" dy="-0.3em" text-anchor="start" style="fill-opacity: 1;">Codeunit 1012 Job Jnl.-Post Line</text><text x="10" dy="0.95em" text-anchor="start" style="fill-opacity: 1;">InitResJnlLine()</text></g><g class="node" transform="translate(1600,370.9391174316406)"><circle r="4.5" style="fill: rgb(255, 255, 255);"></circle><text x="10" dy="-0.3em" text-anchor="start" style="fill-opacity: 1;">Codeunit 1012 Job Jnl.-Post Line</text><text x="10" dy="0.95em" text-anchor="start" style="fill-opacity: 1;">GetGLSetup()</text></g><g class="node" transform="translate(1600,332.1043395996094)"><circle r="4.5" style="fill: rgb(255, 255, 255);"></circle><text x="10" dy="-0.3em" text-anchor="start" style="fill-opacity: 1;">Table 167 Job</text><text x="10" dy="0.95em" text-anchor="start" style="fill-opacity: 1;">TestBlocked()</text></g><g class="node" transform="translate(1600,293.2695617675781)"><circle r="4.5" style="fill: rgb(0, 255, 0);"></circle><text x="10" dy="0.2em" text-anchor="start" style="fill-opacity: 1;">        JobReg.INSERT;</text></g><g class="node" transform="translate(2000,314.6956481933594)"><circle r="4.5" style="fill: rgb(255, 255, 255);"></circle><text x="10" dy="-0.3em" text-anchor="start" style="fill-opacity: 1;">Codeunit 408 DimensionManagement</text><text x="10" dy="0.95em" text-anchor="start" style="fill-opacity: 1;">CheckBlockedDimAndValues()</text></g><g class="node" transform="translate(1800,314.6956481933594)"><circle r="4.5" style="fill: rgb(255, 255, 255);"></circle><text x="10" dy="-0.3em" text-anchor="start" style="fill-opacity: 1;">Codeunit 408 DimensionManagement</text><text x="10" dy="0.95em" text-anchor="start" style="fill-opacity: 1;">CheckDimValuePosting()</text></g><g class="node" transform="translate(1800,281.2173767089844)"><circle r="4.5" style="fill: rgb(255, 255, 255);"></circle><text x="10" dy="-0.3em" text-anchor="start" style="fill-opacity: 1;">Codeunit 408 DimensionManagement</text><text x="10" dy="0.95em" text-anchor="start" style="fill-opacity: 1;">TypeToTableID2()</text></g><g class="node" transform="translate(2000,261.13043212890625)"><circle r="4.5" style="fill: rgb(255, 255, 255);"></circle><text x="10" dy="-0.3em" text-anchor="start" style="fill-opacity: 1;">Codeunit 408 DimensionManagement</text><text x="10" dy="0.95em" text-anchor="start" style="fill-opacity: 1;">CheckDimComb()</text></g><g class="node" transform="translate(2000,234.3478240966797)"><circle r="4.5" style="fill: rgb(255, 0, 0);"></circle><text x="10" dy="0.2em" text-anchor="start" style="fill-opacity: 1;">  TempDimBuf1.DELETEALL;</text></g><g class="node" transform="translate(1800,247.7391357421875)"><circle r="4.5" style="fill: rgb(255, 255, 255);"></circle><text x="10" dy="-0.3em" text-anchor="start" style="fill-opacity: 1;">Codeunit 408 DimensionManagement</text><text x="10" dy="0.95em" text-anchor="start" style="fill-opacity: 1;">CheckDimIDComb()</text></g><g class="node" transform="translate(1800,220.95652770996094)"><circle r="4.5" style="fill: rgb(255, 255, 255);"></circle><text x="10" dy="-0.3em" text-anchor="start" style="fill-opacity: 1;">Codeunit 1011 Job Jnl.-Check Line</text><text x="10" dy="0.95em" text-anchor="start" style="fill-opacity: 1;">DateNotAllowed()</text></g><g class="node" transform="translate(1800,194.17391967773438)"><circle r="4.5" style="fill: rgb(255, 255, 255);"></circle><text x="10" dy="-0.3em" text-anchor="start" style="fill-opacity: 1;">Table 210 Job Journal Line</text><text x="10" dy="0.95em" text-anchor="start" style="fill-opacity: 1;">EmptyLine()</text></g><g class="node" transform="translate(1600,254.43478393554688)"><circle r="4.5" style="fill: rgb(255, 255, 255);"></circle><text x="10" dy="-0.3em" text-anchor="start" style="fill-opacity: 1;">Codeunit 1011 Job Jnl.-Check Line</text><text x="10" dy="0.95em" text-anchor="start" style="fill-opacity: 1;">RunCheck()</text></g><g class="node" transform="translate(1600,227.6521759033203)"><circle r="4.5" style="fill: rgb(255, 255, 255);"></circle><text x="10" dy="-0.3em" text-anchor="start" style="fill-opacity: 1;">Table 210 Job Journal Line</text><text x="10" dy="0.95em" text-anchor="start" style="fill-opacity: 1;">EmptyLine()</text></g><g class="node" transform="translate(1600,200.86956787109375)"><circle r="4.5" style="fill: rgb(255, 255, 255);"></circle><text x="10" dy="-0.3em" text-anchor="start" style="fill-opacity: 1;">Codeunit 1012 Job Jnl.-Post Line</text><text x="10" dy="0.95em" text-anchor="start" style="fill-opacity: 1;">GetGLSetup()</text></g><g class="node" transform="translate(1400,431.86956787109375)"><circle r="4.5" style="fill: rgb(255, 255, 255);"></circle><text x="10" dy="-0.3em" text-anchor="start" style="fill-opacity: 1;">Codeunit 1012 Job Jnl.-Post Line</text><text x="10" dy="0.95em" text-anchor="start" style="fill-opacity: 1;">Code()</text></g><g class="node" transform="translate(1200,431.86956787109375)"><circle r="4.5" style="fill: rgb(255, 255, 255);"></circle><text x="10" dy="-0.3em" text-anchor="start" style="fill-opacity: 1;">Codeunit 1012 Job Jnl.-Post Line</text><text x="10" dy="0.95em" text-anchor="start" style="fill-opacity: 1;">RunWithCheck()</text></g><g class="node" transform="translate(1200,345.6630554199219)"><circle r="4.5" style="fill: rgb(255, 255, 255);"></circle><text x="10" dy="-0.3em" text-anchor="start" style="fill-opacity: 1;">Codeunit 1013 Job Jnl.-Post Batch</text><text x="10" dy="0.95em" text-anchor="start" style="fill-opacity: 1;">MakeRecurringTexts()</text></g><g class="node" transform="translate(1200,259.4565124511719)"><circle r="4.5" style="fill: rgb(255, 255, 255);"></circle><text x="10" dy="-0.3em" text-anchor="start" style="fill-opacity: 1;">Table 210 Job Journal Line</text><text x="10" dy="0.95em" text-anchor="start" style="fill-opacity: 1;">EmptyLine()</text></g><g class="node" transform="translate(1200,173.25)"><circle r="4.5" style="fill: rgb(255, 255, 255);"></circle><text x="10" dy="-0.3em" text-anchor="start" style="fill-opacity: 1;">Table 210 Job Journal Line</text><text x="10" dy="0.95em" text-anchor="start" style="fill-opacity: 1;">EmptyLine()</text></g><g class="node" transform="translate(1600,147.30435180664062)"><circle r="4.5" style="fill: rgb(255, 255, 255);"></circle><text x="10" dy="-0.3em" text-anchor="start" style="fill-opacity: 1;">Codeunit 408 DimensionManagement</text><text x="10" dy="0.95em" text-anchor="start" style="fill-opacity: 1;">CheckBlockedDimAndValues()</text></g><g class="node" transform="translate(1400,147.30435180664062)"><circle r="4.5" style="fill: rgb(255, 255, 255);"></circle><text x="10" dy="-0.3em" text-anchor="start" style="fill-opacity: 1;">Codeunit 408 DimensionManagement</text><text x="10" dy="0.95em" text-anchor="start" style="fill-opacity: 1;">CheckDimValuePosting()</text></g><g class="node" transform="translate(1400,113.82608795166016)"><circle r="4.5" style="fill: rgb(255, 255, 255);"></circle><text x="10" dy="-0.3em" text-anchor="start" style="fill-opacity: 1;">Codeunit 408 DimensionManagement</text><text x="10" dy="0.95em" text-anchor="start" style="fill-opacity: 1;">TypeToTableID2()</text></g><g class="node" transform="translate(1600,93.73912811279297)"><circle r="4.5" style="fill: rgb(255, 255, 255);"></circle><text x="10" dy="-0.3em" text-anchor="start" style="fill-opacity: 1;">Codeunit 408 DimensionManagement</text><text x="10" dy="0.95em" text-anchor="start" style="fill-opacity: 1;">CheckDimComb()</text></g><g class="node" transform="translate(1600,66.9565200805664)"><circle r="4.5" style="fill: rgb(255, 0, 0);"></circle><text x="10" dy="0.2em" text-anchor="start" style="fill-opacity: 1;">  TempDimBuf1.DELETEALL;</text></g><g class="node" transform="translate(1400,80.34782409667969)"><circle r="4.5" style="fill: rgb(255, 255, 255);"></circle><text x="10" dy="-0.3em" text-anchor="start" style="fill-opacity: 1;">Codeunit 408 DimensionManagement</text><text x="10" dy="0.95em" text-anchor="start" style="fill-opacity: 1;">CheckDimIDComb()</text></g><g class="node" transform="translate(1400,53.565216064453125)"><circle r="4.5" style="fill: rgb(255, 255, 255);"></circle><text x="10" dy="-0.3em" text-anchor="start" style="fill-opacity: 1;">Codeunit 1011 Job Jnl.-Check Line</text><text x="10" dy="0.95em" text-anchor="start" style="fill-opacity: 1;">DateNotAllowed()</text></g><g class="node" transform="translate(1400,26.782608032226562)"><circle r="4.5" style="fill: rgb(255, 255, 255);"></circle><text x="10" dy="-0.3em" text-anchor="start" style="fill-opacity: 1;">Table 210 Job Journal Line</text><text x="10" dy="0.95em" text-anchor="start" style="fill-opacity: 1;">EmptyLine()</text></g><g class="node" transform="translate(1200,87.0434799194336)"><circle r="4.5" style="fill: rgb(255, 255, 255);"></circle><text x="10" dy="-0.3em" text-anchor="start" style="fill-opacity: 1;">Codeunit 1011 Job Jnl.-Check Line</text><text x="10" dy="0.95em" text-anchor="start" style="fill-opacity: 1;">RunCheck()</text></g><g class="node" transform="translate(1200,60.260868072509766)"><circle r="4.5" style="fill: rgb(255, 255, 255);"></circle><text x="10" dy="-0.3em" text-anchor="start" style="fill-opacity: 1;">Codeunit 1013 Job Jnl.-Post Batch</text><text x="10" dy="0.95em" text-anchor="start" style="fill-opacity: 1;">CheckRecurringLine()</text></g><g class="node" transform="translate(1000,286.2391357421875)"><circle r="4.5" style="fill: rgb(255, 255, 255);"></circle><text x="10" dy="-0.3em" text-anchor="start" style="fill-opacity: 1;">Codeunit 1013 Job Jnl.-Post Batch</text><text x="10" dy="0.95em" text-anchor="start" style="fill-opacity: 1;">Code()</text></g><g class="node" transform="translate(800,286.2391357421875)"><circle r="4.5" style="fill: rgb(255, 255, 255);"></circle><text x="10" dy="-0.3em" text-anchor="start" style="fill-opacity: 1;">Codeunit 1013 Job Jnl.-Post Batch</text><text x="10" dy="0.95em" text-anchor="start" style="fill-opacity: 1;">OnRun()</text></g><g class="node" transform="translate(600,286.2391357421875)"><circle r="4.5" style="fill: rgb(255, 255, 255);"></circle><text x="10" dy="-0.3em" text-anchor="start" style="fill-opacity: 1;">Codeunit 1021 Job Jnl.-Post</text><text x="10" dy="0.95em" text-anchor="start" style="fill-opacity: 1;">Code()</text></g><g class="node" transform="translate(400,286.2391357421875)"><circle r="4.5" style="fill: rgb(255, 255, 255);"></circle><text x="10" dy="-0.3em" text-anchor="start" style="fill-opacity: 1;">Codeunit 1021 Job Jnl.-Post</text><text x="10" dy="0.95em" text-anchor="start" style="fill-opacity: 1;">OnRun()</text></g><g class="node" transform="translate(200,286.2391357421875)"><circle r="4.5" style="fill: rgb(255, 255, 255);"></circle><text x="10" dy="-0.3em" text-anchor="start" style="fill-opacity: 1;">Page 201 Job Journal</text><text x="10" dy="0.95em" text-anchor="start" style="fill-opacity: 1;">&lt;Action56&gt; - OnAction()</text></g><g class="node" transform="translate(800,232.67391967773438)"><circle r="4.5" style="fill: rgb(255, 255, 255);"></circle><text x="10" dy="-0.3em" text-anchor="start" style="fill-opacity: 1;">Codeunit 408 DimensionManagement</text><text x="10" dy="0.95em" text-anchor="start" style="fill-opacity: 1;">GetGLSetup()</text></g><g class="node" transform="translate(600,232.67391967773438)"><circle r="4.5" style="fill: rgb(255, 255, 255);"></circle><text x="10" dy="-0.3em" text-anchor="start" style="fill-opacity: 1;">Codeunit 408 DimensionManagement</text><text x="10" dy="0.95em" text-anchor="start" style="fill-opacity: 1;">GetShortcutDimensions()</text></g><g class="node" transform="translate(400,232.67391967773438)"><circle r="4.5" style="fill: rgb(255, 255, 255);"></circle><text x="10" dy="-0.3em" text-anchor="start" style="fill-opacity: 1;">Table 210 Job Journal Line</text><text x="10" dy="0.95em" text-anchor="start" style="fill-opacity: 1;">ShowShortcutDimCode()</text></g><g class="node" transform="translate(200,232.67391967773438)"><circle r="4.5" style="fill: rgb(255, 255, 255);"></circle><text x="10" dy="-0.3em" text-anchor="start" style="fill-opacity: 1;">Page 201 Job Journal</text><text x="10" dy="0.95em" text-anchor="start" style="fill-opacity: 1;">OnAfterGetRecord()</text></g><g class="node" transform="translate(0,339.8043518066406)"><circle r="4.5" style="fill: rgb(255, 255, 255);"></circle><text x="10" dy="-0.3em" text-anchor="start" style="fill-opacity: 1;">root</text><text x="10" dy="0.95em" text-anchor="start" style="fill-opacity: 1;"></text></g></g></svg>